<svg xmlns="http://www.w3.org/2000/svg" xmlns:xlink="http://www.w3.org/1999/xlink" width="2000" zoomAndPan="magnify" viewBox="0 0 1500 1499.999933" height="2000" preserveAspectRatio="xMidYMid meet" version="1.2"><defs><clipPath id="cda83e2ec7"><path d="M 0 503.195312 L 1500 503.195312 L 1500 1137.886719 L 0 1137.886719 Z M 0 503.195312 "/></clipPath><clipPath id="cc3c97ef13"><path d="M 0 0.195312 L 1500 0.195312 L 1500 634.886719 L 0 634.886719 Z M 0 0.195312 "/></clipPath><clipPath id="f94d217713"><rect x="0" width="1500" y="0" height="635"/></clipPath><clipPath id="0604b1d347"><rect x="0" width="1478" y="0" height="772"/></clipPath></defs><g id="f759d46abe"><g clip-rule="nonzero" clip-path="url(#cda83e2ec7)"><g transform="matrix(1,0,0,1,0,503)"><g clip-path="url(#f94d217713)"><g clip-rule="nonzero" clip-path="url(#cc3c97ef13)"><path style=" stroke:none;fill-rule:nonzero;fill:#ffffff;fill-opacity:1;" d="M 0 0.195312 L 1499.960938 0.195312 L 1499.960938 634.886719 L 0 634.886719 Z M 0 0.195312 "/></g></g></g></g><g transform="matrix(1,0,0,1,11,359)"><g clip-path="url(#0604b1d347)"><g style="fill:#0080ff;fill-opacity:1;"><g transform="translate(1.873227, 611.548304)"><path style="stroke:none" d="M 52.53125 -443.09375 L 253.828125 -443.09375 C 301.941406 -443.09375 344.457031 -433.914062 381.375 -415.5625 C 418.300781 -397.207031 447 -371.359375 467.46875 -338.015625 C 487.9375 -304.679688 498.171875 -265.859375 498.171875 -221.546875 C 498.171875 -177.234375 487.9375 -138.410156 467.46875 -105.078125 C 447 -71.742188 418.300781 -45.894531 381.375 -27.53125 C 344.457031 -9.175781 301.941406 0 253.828125 0 L 52.53125 0 Z M 248.765625 -84.1875 C 293.078125 -84.1875 328.421875 -96.53125 354.796875 -121.21875 C 381.171875 -145.90625 394.359375 -179.347656 394.359375 -221.546875 C 394.359375 -263.742188 381.171875 -297.1875 354.796875 -321.875 C 328.421875 -346.5625 293.078125 -358.90625 248.765625 -358.90625 L 155.078125 -358.90625 L 155.078125 -84.1875 Z M 248.765625 -84.1875 "/></g></g><g style="fill:#00cc66;fill-opacity:1;"><g transform="translate(524.730012, 611.548304)"><path style="stroke:none" d="M 351.953125 -228.515625 L 445.625 -228.515625 L 445.625 -48.734375 C 421.570312 -30.585938 393.71875 -16.660156 362.0625 -6.953125 C 330.414062 2.742188 298.5625 7.59375 266.5 7.59375 C 220.5 7.59375 179.140625 -2.210938 142.421875 -21.828125 C 105.710938 -41.453125 76.910156 -68.671875 56.015625 -103.484375 C 35.128906 -138.304688 24.6875 -177.660156 24.6875 -221.546875 C 24.6875 -265.429688 35.128906 -304.78125 56.015625 -339.59375 C 76.910156 -374.414062 105.925781 -401.640625 143.0625 -421.265625 C 180.195312 -440.890625 221.972656 -450.703125 268.390625 -450.703125 C 307.210938 -450.703125 342.445312 -444.160156 374.09375 -431.078125 C 405.75 -417.992188 432.335938 -399.003906 453.859375 -374.109375 L 388.03125 -313.328125 C 356.375 -346.671875 318.179688 -363.34375 273.453125 -363.34375 C 245.179688 -363.34375 220.070312 -357.429688 198.125 -345.609375 C 176.1875 -333.796875 159.097656 -317.128906 146.859375 -295.609375 C 134.617188 -274.085938 128.5 -249.398438 128.5 -221.546875 C 128.5 -194.117188 134.617188 -169.644531 146.859375 -148.125 C 159.097656 -126.601562 176.082031 -109.828125 197.8125 -97.796875 C 219.539062 -85.773438 244.332031 -79.765625 272.1875 -79.765625 C 301.726562 -79.765625 328.316406 -86.09375 351.953125 -98.75 Z M 351.953125 -228.515625 "/></g></g><g style="fill:#8000ff;fill-opacity:1;"><g transform="translate(1012.771879, 611.548304)"><path style="stroke:none" d="M 244.34375 -443.09375 C 283.582031 -443.09375 317.65625 -436.550781 346.5625 -423.46875 C 375.46875 -410.394531 397.726562 -391.828125 413.34375 -367.765625 C 428.957031 -343.710938 436.765625 -315.226562 436.765625 -282.3125 C 436.765625 -249.820312 428.957031 -221.441406 413.34375 -197.171875 C 397.726562 -172.910156 375.46875 -154.34375 346.5625 -141.46875 C 317.65625 -128.601562 283.582031 -122.171875 244.34375 -122.171875 L 155.078125 -122.171875 L 155.078125 0 L 52.53125 0 L 52.53125 -443.09375 Z M 238.640625 -205.71875 C 269.441406 -205.71875 292.859375 -212.363281 308.890625 -225.65625 C 324.929688 -238.957031 332.953125 -257.84375 332.953125 -282.3125 C 332.953125 -307.21875 324.929688 -326.316406 308.890625 -339.609375 C 292.859375 -352.898438 269.441406 -359.546875 238.640625 -359.546875 L 155.078125 -359.546875 L 155.078125 -205.71875 Z M 238.640625 -205.71875 "/></g></g></g></g><g style="fill:#000000;fill-opacity:1;"><g transform="translate(60.550809, 1115.389228)"><path style="stroke:none" d="M 7.46875 -63 L 36.09375 -63 C 42.925781 -63 48.96875 -61.691406 54.21875 -59.078125 C 59.46875 -56.472656 63.546875 -52.800781 66.453125 -48.0625 C 69.367188 -43.320312 70.828125 -37.800781 70.828125 -31.5 C 70.828125 -25.195312 69.367188 -19.675781 66.453125 -14.9375 C 63.546875 -10.195312 59.46875 -6.519531 54.21875 -3.90625 C 48.96875 -1.300781 42.925781 0 36.09375 0 L 7.46875 0 Z M 35.375 -11.96875 C 41.664062 -11.96875 46.6875 -13.722656 50.4375 -17.234375 C 54.1875 -20.742188 56.0625 -25.5 56.0625 -31.5 C 56.0625 -37.5 54.1875 -42.253906 50.4375 -45.765625 C 46.6875 -49.273438 41.664062 -51.03125 35.375 -51.03125 L 22.046875 -51.03125 L 22.046875 -11.96875 Z M 35.375 -11.96875 "/></g></g><g style="fill:#000000;fill-opacity:1;"><g transform="translate(134.881129, 1115.389228)"><path style="stroke:none" d="M 7.46875 -63 L 22.046875 -63 L 22.046875 0 L 7.46875 0 Z M 7.46875 -63 "/></g></g><g style="fill:#000000;fill-opacity:1;"><g transform="translate(164.397282, 1115.389228)"><path style="stroke:none" d="M 50.046875 -32.484375 L 63.359375 -32.484375 L 63.359375 -6.9375 C 59.941406 -4.351562 55.984375 -2.367188 51.484375 -0.984375 C 46.984375 0.390625 42.453125 1.078125 37.890625 1.078125 C 31.347656 1.078125 25.46875 -0.316406 20.25 -3.109375 C 15.03125 -5.898438 10.9375 -9.769531 7.96875 -14.71875 C 5 -19.664062 3.515625 -25.257812 3.515625 -31.5 C 3.515625 -37.738281 5 -43.332031 7.96875 -48.28125 C 10.9375 -53.226562 15.0625 -57.097656 20.34375 -59.890625 C 25.625 -62.679688 31.5625 -64.078125 38.15625 -64.078125 C 43.675781 -64.078125 48.6875 -63.144531 53.1875 -61.28125 C 57.6875 -59.425781 61.46875 -56.726562 64.53125 -53.1875 L 55.171875 -44.546875 C 50.671875 -49.285156 45.238281 -51.65625 38.875 -51.65625 C 34.851562 -51.65625 31.28125 -50.816406 28.15625 -49.140625 C 25.039062 -47.460938 22.613281 -45.09375 20.875 -42.03125 C 19.132812 -38.96875 18.265625 -35.457031 18.265625 -31.5 C 18.265625 -27.601562 19.132812 -24.125 20.875 -21.0625 C 22.613281 -18 25.03125 -15.613281 28.125 -13.90625 C 31.21875 -12.195312 34.742188 -11.34375 38.703125 -11.34375 C 42.898438 -11.34375 46.679688 -12.242188 50.046875 -14.046875 Z M 50.046875 -32.484375 "/></g></g><g style="fill:#000000;fill-opacity:1;"><g transform="translate(233.778249, 1115.389228)"><path style="stroke:none" d="M 7.46875 -63 L 22.046875 -63 L 22.046875 0 L 7.46875 0 Z M 7.46875 -63 "/></g></g><g style="fill:#000000;fill-opacity:1;"><g transform="translate(263.294414, 1115.389228)"><path style="stroke:none" d="M 20.515625 -51.125 L 0.359375 -51.125 L 0.359375 -63 L 55.265625 -63 L 55.265625 -51.125 L 35.09375 -51.125 L 35.09375 0 L 20.515625 0 Z M 20.515625 -51.125 "/></g></g><g style="fill:#000000;fill-opacity:1;"><g transform="translate(315.757422, 1115.389228)"><path style="stroke:none" d="M 48.953125 -13.5 L 19.703125 -13.5 L 14.125 0 L -0.8125 0 L 27.265625 -63 L 41.671875 -63 L 69.84375 0 L 54.546875 0 Z M 44.375 -24.5625 L 34.375 -48.6875 L 24.390625 -24.5625 Z M 44.375 -24.5625 "/></g></g><g style="fill:#000000;fill-opacity:1;"><g transform="translate(384.688431, 1115.389228)"><path style="stroke:none" d="M 7.46875 -63 L 22.046875 -63 L 22.046875 -11.875 L 53.640625 -11.875 L 53.640625 0 L 7.46875 0 Z M 7.46875 -63 "/></g></g><g style="fill:#000000;fill-opacity:1;"><g transform="translate(439.041362, 1115.389228)"><path style="stroke:none" d=""/></g></g><g style="fill:#000000;fill-opacity:1;"><g transform="translate(464.508035, 1115.389228)"><path style="stroke:none" d="M 50.046875 -32.484375 L 63.359375 -32.484375 L 63.359375 -6.9375 C 59.941406 -4.351562 55.984375 -2.367188 51.484375 -0.984375 C 46.984375 0.390625 42.453125 1.078125 37.890625 1.078125 C 31.347656 1.078125 25.46875 -0.316406 20.25 -3.109375 C 15.03125 -5.898438 10.9375 -9.769531 7.96875 -14.71875 C 5 -19.664062 3.515625 -25.257812 3.515625 -31.5 C 3.515625 -37.738281 5 -43.332031 7.96875 -48.28125 C 10.9375 -53.226562 15.0625 -57.097656 20.34375 -59.890625 C 25.625 -62.679688 31.5625 -64.078125 38.15625 -64.078125 C 43.675781 -64.078125 48.6875 -63.144531 53.1875 -61.28125 C 57.6875 -59.425781 61.46875 -56.726562 64.53125 -53.1875 L 55.171875 -44.546875 C 50.671875 -49.285156 45.238281 -51.65625 38.875 -51.65625 C 34.851562 -51.65625 31.28125 -50.816406 28.15625 -49.140625 C 25.039062 -47.460938 22.613281 -45.09375 20.875 -42.03125 C 19.132812 -38.96875 18.265625 -35.457031 18.265625 -31.5 C 18.265625 -27.601562 19.132812 -24.125 20.875 -21.0625 C 22.613281 -18 25.03125 -15.613281 28.125 -13.90625 C 31.21875 -12.195312 34.742188 -11.34375 38.703125 -11.34375 C 42.898438 -11.34375 46.679688 -12.242188 50.046875 -14.046875 Z M 50.046875 -32.484375 "/></g></g><g style="fill:#000000;fill-opacity:1;"><g transform="translate(533.889026, 1115.389228)"><path style="stroke:none" d="M 47.609375 0 L 35.453125 -17.546875 L 22.046875 -17.546875 L 22.046875 0 L 7.46875 0 L 7.46875 -63 L 34.734375 -63 C 40.316406 -63 45.160156 -62.066406 49.265625 -60.203125 C 53.378906 -58.347656 56.546875 -55.707031 58.765625 -52.28125 C 60.984375 -48.863281 62.09375 -44.816406 62.09375 -40.140625 C 62.09375 -35.460938 60.96875 -31.425781 58.71875 -28.03125 C 56.46875 -24.644531 53.273438 -22.050781 49.140625 -20.25 L 63.265625 0 Z M 47.34375 -40.140625 C 47.34375 -43.679688 46.203125 -46.394531 43.921875 -48.28125 C 41.640625 -50.175781 38.3125 -51.125 33.9375 -51.125 L 22.046875 -51.125 L 22.046875 -29.15625 L 33.9375 -29.15625 C 38.3125 -29.15625 41.640625 -30.113281 43.921875 -32.03125 C 46.203125 -33.957031 47.34375 -36.660156 47.34375 -40.140625 Z M 47.34375 -40.140625 "/></g></g><g style="fill:#000000;fill-opacity:1;"><g transform="translate(600.030378, 1115.389228)"><path style="stroke:none" d="M 37.984375 1.078125 C 31.441406 1.078125 25.546875 -0.328125 20.296875 -3.140625 C 15.046875 -5.960938 10.9375 -9.847656 7.96875 -14.796875 C 5 -19.753906 3.515625 -25.320312 3.515625 -31.5 C 3.515625 -37.675781 5 -43.238281 7.96875 -48.1875 C 10.9375 -53.144531 15.046875 -57.03125 20.296875 -59.84375 C 25.546875 -62.664062 31.441406 -64.078125 37.984375 -64.078125 C 44.523438 -64.078125 50.40625 -62.664062 55.625 -59.84375 C 60.84375 -57.03125 64.953125 -53.144531 67.953125 -48.1875 C 70.953125 -43.238281 72.453125 -37.675781 72.453125 -31.5 C 72.453125 -25.320312 70.953125 -19.753906 67.953125 -14.796875 C 64.953125 -9.847656 60.84375 -5.960938 55.625 -3.140625 C 50.40625 -0.328125 44.523438 1.078125 37.984375 1.078125 Z M 37.984375 -11.34375 C 41.703125 -11.34375 45.0625 -12.195312 48.0625 -13.90625 C 51.0625 -15.613281 53.414062 -18 55.125 -21.0625 C 56.832031 -24.125 57.6875 -27.601562 57.6875 -31.5 C 57.6875 -35.394531 56.832031 -38.875 55.125 -41.9375 C 53.414062 -45 51.0625 -47.382812 48.0625 -49.09375 C 45.0625 -50.800781 41.703125 -51.65625 37.984375 -51.65625 C 34.265625 -51.65625 30.90625 -50.800781 27.90625 -49.09375 C 24.90625 -47.382812 22.546875 -45 20.828125 -41.9375 C 19.117188 -38.875 18.265625 -35.394531 18.265625 -31.5 C 18.265625 -27.601562 19.117188 -24.125 20.828125 -21.0625 C 22.546875 -18 24.90625 -15.613281 27.90625 -13.90625 C 30.90625 -12.195312 34.265625 -11.34375 37.984375 -11.34375 Z M 37.984375 -11.34375 "/></g></g><g style="fill:#000000;fill-opacity:1;"><g transform="translate(673.910681, 1115.389228)"><path style="stroke:none" d="M 102.6875 -63 L 82.078125 0 L 66.421875 0 L 52.5625 -42.65625 L 38.25 0 L 22.6875 0 L 1.984375 -63 L 17.09375 -63 L 31.3125 -18.71875 L 46.171875 -63 L 59.671875 -63 L 74.0625 -18.359375 L 88.734375 -63 Z M 102.6875 -63 "/></g></g><g style="fill:#000000;fill-opacity:1;"><g transform="translate(777.397169, 1115.389228)"><path style="stroke:none" d="M 20.515625 -51.125 L 0.359375 -51.125 L 0.359375 -63 L 55.265625 -63 L 55.265625 -51.125 L 35.09375 -51.125 L 35.09375 0 L 20.515625 0 Z M 20.515625 -51.125 "/></g></g><g style="fill:#000000;fill-opacity:1;"><g transform="translate(833.009911, 1115.389228)"><path style="stroke:none" d="M 65.25 -63 L 65.25 0 L 50.671875 0 L 50.671875 -25.828125 L 22.046875 -25.828125 L 22.046875 0 L 7.46875 0 L 7.46875 -63 L 22.046875 -63 L 22.046875 -38.15625 L 50.671875 -38.15625 L 50.671875 -63 Z M 65.25 -63 "/></g></g><g style="fill:#000000;fill-opacity:1;"><g transform="translate(905.720446, 1115.389228)"><path style="stroke:none" d=""/></g></g><g style="fill:#000000;fill-opacity:1;"><g transform="translate(931.187118, 1115.389228)"><path style="stroke:none" d="M 34.734375 -63 C 40.316406 -63 45.160156 -62.066406 49.265625 -60.203125 C 53.378906 -58.347656 56.546875 -55.707031 58.765625 -52.28125 C 60.984375 -48.863281 62.09375 -44.816406 62.09375 -40.140625 C 62.09375 -35.515625 60.984375 -31.476562 58.765625 -28.03125 C 56.546875 -24.582031 53.378906 -21.941406 49.265625 -20.109375 C 45.160156 -18.285156 40.316406 -17.375 34.734375 -17.375 L 22.046875 -17.375 L 22.046875 0 L 7.46875 0 L 7.46875 -63 Z M 33.9375 -29.25 C 38.3125 -29.25 41.640625 -30.191406 43.921875 -32.078125 C 46.203125 -33.972656 47.34375 -36.660156 47.34375 -40.140625 C 47.34375 -43.679688 46.203125 -46.394531 43.921875 -48.28125 C 41.640625 -50.175781 38.3125 -51.125 33.9375 -51.125 L 22.046875 -51.125 L 22.046875 -29.25 Z M 33.9375 -29.25 "/></g></g><g style="fill:#000000;fill-opacity:1;"><g transform="translate(993.008921, 1115.389228)"><path style="stroke:none" d="M 48.953125 -13.5 L 19.703125 -13.5 L 14.125 0 L -0.8125 0 L 27.265625 -63 L 41.671875 -63 L 69.84375 0 L 54.546875 0 Z M 44.375 -24.5625 L 34.375 -48.6875 L 24.390625 -24.5625 Z M 44.375 -24.5625 "/></g></g><g style="fill:#000000;fill-opacity:1;"><g transform="translate(1061.939884, 1115.389228)"><path style="stroke:none" d="M 47.609375 0 L 35.453125 -17.546875 L 22.046875 -17.546875 L 22.046875 0 L 7.46875 0 L 7.46875 -63 L 34.734375 -63 C 40.316406 -63 45.160156 -62.066406 49.265625 -60.203125 C 53.378906 -58.347656 56.546875 -55.707031 58.765625 -52.28125 C 60.984375 -48.863281 62.09375 -44.816406 62.09375 -40.140625 C 62.09375 -35.460938 60.96875 -31.425781 58.71875 -28.03125 C 56.46875 -24.644531 53.273438 -22.050781 49.140625 -20.25 L 63.265625 0 Z M 47.34375 -40.140625 C 47.34375 -43.679688 46.203125 -46.394531 43.921875 -48.28125 C 41.640625 -50.175781 38.3125 -51.125 33.9375 -51.125 L 22.046875 -51.125 L 22.046875 -29.15625 L 33.9375 -29.15625 C 38.3125 -29.15625 41.640625 -30.113281 43.921875 -32.03125 C 46.203125 -33.957031 47.34375 -36.660156 47.34375 -40.140625 Z M 47.34375 -40.140625 "/></g></g><g style="fill:#000000;fill-opacity:1;"><g transform="translate(1127.181364, 1115.389228)"><path style="stroke:none" d="M 20.515625 -51.125 L 0.359375 -51.125 L 0.359375 -63 L 55.265625 -63 L 55.265625 -51.125 L 35.09375 -51.125 L 35.09375 0 L 20.515625 0 Z M 20.515625 -51.125 "/></g></g><g style="fill:#000000;fill-opacity:1;"><g transform="translate(1182.794152, 1115.389228)"><path style="stroke:none" d="M 65.25 -63 L 65.25 0 L 53.28125 0 L 21.875 -38.25 L 21.875 0 L 7.46875 0 L 7.46875 -63 L 19.53125 -63 L 50.84375 -24.75 L 50.84375 -63 Z M 65.25 -63 "/></g></g><g style="fill:#000000;fill-opacity:1;"><g transform="translate(1255.504687, 1115.389228)"><path style="stroke:none" d="M 56.25 -11.703125 L 56.25 0 L 7.46875 0 L 7.46875 -63 L 55.078125 -63 L 55.078125 -51.296875 L 21.953125 -51.296875 L 21.953125 -37.625 L 51.203125 -37.625 L 51.203125 -26.28125 L 21.953125 -26.28125 L 21.953125 -11.703125 Z M 56.25 -11.703125 "/></g></g><g style="fill:#000000;fill-opacity:1;"><g transform="translate(1315.886823, 1115.389228)"><path style="stroke:none" d="M 47.609375 0 L 35.453125 -17.546875 L 22.046875 -17.546875 L 22.046875 0 L 7.46875 0 L 7.46875 -63 L 34.734375 -63 C 40.316406 -63 45.160156 -62.066406 49.265625 -60.203125 C 53.378906 -58.347656 56.546875 -55.707031 58.765625 -52.28125 C 60.984375 -48.863281 62.09375 -44.816406 62.09375 -40.140625 C 62.09375 -35.460938 60.96875 -31.425781 58.71875 -28.03125 C 56.46875 -24.644531 53.273438 -22.050781 49.140625 -20.25 L 63.265625 0 Z M 47.34375 -40.140625 C 47.34375 -43.679688 46.203125 -46.394531 43.921875 -48.28125 C 41.640625 -50.175781 38.3125 -51.125 33.9375 -51.125 L 22.046875 -51.125 L 22.046875 -29.15625 L 33.9375 -29.15625 C 38.3125 -29.15625 41.640625 -30.113281 43.921875 -32.03125 C 46.203125 -33.957031 47.34375 -36.660156 47.34375 -40.140625 Z M 47.34375 -40.140625 "/></g></g><g style="fill:#000000;fill-opacity:1;"><g transform="translate(1382.028175, 1115.389228)"><path style="stroke:none" d="M 28.171875 1.078125 C 23.191406 1.078125 18.375 0.40625 13.71875 -0.9375 C 9.070312 -2.289062 5.335938 -4.046875 2.515625 -6.203125 L 7.46875 -17.1875 C 10.164062 -15.207031 13.375 -13.617188 17.09375 -12.421875 C 20.820312 -11.222656 24.546875 -10.625 28.265625 -10.625 C 32.398438 -10.625 35.457031 -11.238281 37.4375 -12.46875 C 39.414062 -13.695312 40.40625 -15.332031 40.40625 -17.375 C 40.40625 -18.875 39.820312 -20.117188 38.65625 -21.109375 C 37.488281 -22.097656 35.988281 -22.890625 34.15625 -23.484375 C 32.320312 -24.085938 29.847656 -24.75 26.734375 -25.46875 C 21.929688 -26.613281 18 -27.753906 14.9375 -28.890625 C 11.875 -30.023438 9.25 -31.851562 7.0625 -34.375 C 4.875 -36.894531 3.78125 -40.253906 3.78125 -44.453125 C 3.78125 -48.117188 4.769531 -51.4375 6.75 -54.40625 C 8.726562 -57.375 11.710938 -59.726562 15.703125 -61.46875 C 19.691406 -63.207031 24.566406 -64.078125 30.328125 -64.078125 C 34.347656 -64.078125 38.273438 -63.597656 42.109375 -62.640625 C 45.953125 -61.679688 49.316406 -60.300781 52.203125 -58.5 L 47.703125 -47.4375 C 41.878906 -50.726562 36.054688 -52.375 30.234375 -52.375 C 26.160156 -52.375 23.144531 -51.710938 21.1875 -50.390625 C 19.238281 -49.078125 18.265625 -47.34375 18.265625 -45.1875 C 18.265625 -43.019531 19.390625 -41.410156 21.640625 -40.359375 C 23.890625 -39.316406 27.328125 -38.285156 31.953125 -37.265625 C 36.753906 -36.117188 40.679688 -34.972656 43.734375 -33.828125 C 46.796875 -32.691406 49.421875 -30.894531 51.609375 -28.4375 C 53.804688 -25.976562 54.90625 -22.648438 54.90625 -18.453125 C 54.90625 -14.847656 53.898438 -11.5625 51.890625 -8.59375 C 49.878906 -5.625 46.863281 -3.269531 42.84375 -1.53125 C 38.820312 0.207031 33.929688 1.078125 28.171875 1.078125 Z M 28.171875 1.078125 "/></g></g><g style="fill:#000000;fill-opacity:1;"><g transform="translate(1439.449109, 1115.389228)"><path style="stroke:none" d=""/></g></g></g></svg>