<svg xmlns="http://www.w3.org/2000/svg" xmlns:xlink="http://www.w3.org/1999/xlink" width="1200" zoomAndPan="magnify" viewBox="0 0 900 899.99999" height="1200" preserveAspectRatio="xMidYMid meet" version="1.2"><defs><clipPath id="874b309943"><path d="M 0 315 L 900 315 L 900 674.503906 L 0 674.503906 Z M 0 315 "/></clipPath><clipPath id="8ca37019cd"><path d="M 0 0 L 900 0 L 900 359.503906 L 0 359.503906 Z M 0 0 "/></clipPath><clipPath id="d106dacb5e"><rect x="0" width="900" y="0" height="360"/></clipPath></defs><g id="14eb3a2141"><g clip-rule="nonzero" clip-path="url(#874b309943)"><g transform="matrix(1,0,0,1,0,315)"><g clip-path="url(#d106dacb5e)"><g clip-rule="nonzero" clip-path="url(#8ca37019cd)"><path style=" stroke:none;fill-rule:nonzero;fill:#ffffff;fill-opacity:1;" d="M 0 0 L 900.160156 0 L 900.160156 359.503906 L 0 359.503906 Z M 0 0 "/></g></g></g></g><g style="fill:#0080ff;fill-opacity:1;"><g transform="translate(13.312504, 583.499989)"><path style="stroke:none" d="M 31.125 -262.5 L 150.375 -262.5 C 178.875 -262.5 204.0625 -257.0625 225.9375 -246.1875 C 247.8125 -235.3125 264.8125 -220 276.9375 -200.25 C 289.0625 -180.5 295.125 -157.5 295.125 -131.25 C 295.125 -105 289.0625 -82 276.9375 -62.25 C 264.8125 -42.5 247.8125 -27.1875 225.9375 -16.3125 C 204.0625 -5.4375 178.875 0 150.375 0 L 31.125 0 Z M 147.375 -49.875 C 173.625 -49.875 194.5625 -57.1875 210.1875 -71.8125 C 225.8125 -86.4375 233.625 -106.25 233.625 -131.25 C 233.625 -156.25 225.8125 -176.0625 210.1875 -190.6875 C 194.5625 -205.3125 173.625 -212.625 147.375 -212.625 L 91.875 -212.625 L 91.875 -49.875 Z M 147.375 -49.875 "/></g></g><g style="fill:#00cc66;fill-opacity:1;"><g transform="translate(323.062488, 583.499989)"><path style="stroke:none" d="M 208.5 -135.375 L 264 -135.375 L 264 -28.875 C 249.75 -18.125 233.25 -9.875 214.5 -4.125 C 195.75 1.625 176.875 4.5 157.875 4.5 C 130.625 4.5 106.125 -1.3125 84.375 -12.9375 C 62.625 -24.5625 45.5625 -40.6875 33.1875 -61.3125 C 20.8125 -81.9375 14.625 -105.25 14.625 -131.25 C 14.625 -157.25 20.8125 -180.5625 33.1875 -201.1875 C 45.5625 -221.8125 62.75 -237.9375 84.75 -249.5625 C 106.75 -261.1875 131.5 -267 159 -267 C 182 -267 202.875 -263.125 221.625 -255.375 C 240.375 -247.625 256.125 -236.375 268.875 -221.625 L 229.875 -185.625 C 211.125 -205.375 188.5 -215.25 162 -215.25 C 145.25 -215.25 130.375 -211.75 117.375 -204.75 C 104.375 -197.75 94.25 -187.875 87 -175.125 C 79.75 -162.375 76.125 -147.75 76.125 -131.25 C 76.125 -115 79.75 -100.5 87 -87.75 C 94.25 -75 104.3125 -65.0625 117.1875 -57.9375 C 130.0625 -50.8125 144.75 -47.25 161.25 -47.25 C 178.75 -47.25 194.5 -51 208.5 -58.5 Z M 208.5 -135.375 "/></g></g><g style="fill:#8000ff;fill-opacity:1;"><g transform="translate(612.187473, 583.499989)"><path style="stroke:none" d="M 144.75 -262.5 C 168 -262.5 188.1875 -258.625 205.3125 -250.875 C 222.4375 -243.125 235.625 -232.125 244.875 -217.875 C 254.125 -203.625 258.75 -186.75 258.75 -167.25 C 258.75 -148 254.125 -131.1875 244.875 -116.8125 C 235.625 -102.4375 222.4375 -91.4375 205.3125 -83.8125 C 188.1875 -76.1875 168 -72.375 144.75 -72.375 L 91.875 -72.375 L 91.875 0 L 31.125 0 L 31.125 -262.5 Z M 141.375 -121.875 C 159.625 -121.875 173.5 -125.8125 183 -133.6875 C 192.5 -141.5625 197.25 -152.75 197.25 -167.25 C 197.25 -182 192.5 -193.3125 183 -201.1875 C 173.5 -209.0625 159.625 -213 141.375 -213 L 91.875 -213 L 91.875 -121.875 Z M 141.375 -121.875 "/></g></g><g style="fill:#000000;fill-opacity:1;"><g transform="translate(77.560746, 664.058529)"><path style="stroke:none" d="M 3.3125 -28 L 16.046875 -28 C 19.078125 -28 21.757812 -27.414062 24.09375 -26.25 C 26.425781 -25.09375 28.238281 -23.460938 29.53125 -21.359375 C 30.832031 -19.253906 31.484375 -16.800781 31.484375 -14 C 31.484375 -11.195312 30.832031 -8.742188 29.53125 -6.640625 C 28.238281 -4.535156 26.425781 -2.898438 24.09375 -1.734375 C 21.757812 -0.578125 19.078125 0 16.046875 0 L 3.3125 0 Z M 15.71875 -5.3125 C 18.519531 -5.3125 20.753906 -6.09375 22.421875 -7.65625 C 24.085938 -9.21875 24.921875 -11.332031 24.921875 -14 C 24.921875 -16.664062 24.085938 -18.78125 22.421875 -20.34375 C 20.753906 -21.90625 18.519531 -22.6875 15.71875 -22.6875 L 9.796875 -22.6875 L 9.796875 -5.3125 Z M 15.71875 -5.3125 "/></g></g><g style="fill:#000000;fill-opacity:1;"><g transform="translate(116.597456, 664.058529)"><path style="stroke:none" d="M 3.3125 -28 L 9.796875 -28 L 9.796875 0 L 3.3125 0 Z M 3.3125 -28 "/></g></g><g style="fill:#000000;fill-opacity:1;"><g transform="translate(135.716138, 664.058529)"><path style="stroke:none" d="M 22.234375 -14.4375 L 28.15625 -14.4375 L 28.15625 -3.078125 C 26.632812 -1.929688 24.875 -1.050781 22.875 -0.4375 C 20.875 0.175781 18.863281 0.484375 16.84375 0.484375 C 13.9375 0.484375 11.320312 -0.132812 9 -1.375 C 6.675781 -2.613281 4.851562 -4.332031 3.53125 -6.53125 C 2.21875 -8.738281 1.5625 -11.226562 1.5625 -14 C 1.5625 -16.769531 2.21875 -19.253906 3.53125 -21.453125 C 4.851562 -23.660156 6.6875 -25.382812 9.03125 -26.625 C 11.382812 -27.863281 14.023438 -28.484375 16.953125 -28.484375 C 19.410156 -28.484375 21.640625 -28.066406 23.640625 -27.234375 C 25.640625 -26.410156 27.320312 -25.210938 28.6875 -23.640625 L 24.515625 -19.796875 C 22.515625 -21.898438 20.101562 -22.953125 17.28125 -22.953125 C 15.488281 -22.953125 13.898438 -22.578125 12.515625 -21.828125 C 11.128906 -21.085938 10.050781 -20.035156 9.28125 -18.671875 C 8.507812 -17.316406 8.125 -15.757812 8.125 -14 C 8.125 -12.269531 8.507812 -10.722656 9.28125 -9.359375 C 10.050781 -7.992188 11.125 -6.929688 12.5 -6.171875 C 13.875 -5.421875 15.441406 -5.046875 17.203125 -5.046875 C 19.066406 -5.046875 20.742188 -5.441406 22.234375 -6.234375 Z M 22.234375 -14.4375 "/></g></g><g style="fill:#000000;fill-opacity:1;"><g transform="translate(172.553065, 664.058529)"><path style="stroke:none" d="M 3.3125 -28 L 9.796875 -28 L 9.796875 0 L 3.3125 0 Z M 3.3125 -28 "/></g></g><g style="fill:#000000;fill-opacity:1;"><g transform="translate(191.671747, 664.058529)"><path style="stroke:none" d="M 9.125 -22.71875 L 0.15625 -22.71875 L 0.15625 -28 L 24.5625 -28 L 24.5625 -22.71875 L 15.59375 -22.71875 L 15.59375 0 L 9.125 0 Z M 9.125 -22.71875 "/></g></g><g style="fill:#000000;fill-opacity:1;"><g transform="translate(220.989369, 664.058529)"><path style="stroke:none" d="M 21.765625 -6 L 8.765625 -6 L 6.28125 0 L -0.359375 0 L 12.125 -28 L 18.515625 -28 L 31.046875 0 L 24.234375 0 Z M 19.71875 -10.921875 L 15.28125 -21.640625 L 10.84375 -10.921875 Z M 19.71875 -10.921875 "/></g></g><g style="fill:#000000;fill-opacity:1;"><g transform="translate(257.62631, 664.058529)"><path style="stroke:none" d="M 3.3125 -28 L 9.796875 -28 L 9.796875 -5.28125 L 23.84375 -5.28125 L 23.84375 0 L 3.3125 0 Z M 3.3125 -28 "/></g></g><g style="fill:#000000;fill-opacity:1;"><g transform="translate(287.783894, 664.058529)"><path style="stroke:none" d=""/></g></g><g style="fill:#000000;fill-opacity:1;"><g transform="translate(305.102741, 664.058529)"><path style="stroke:none" d="M 22.234375 -14.4375 L 28.15625 -14.4375 L 28.15625 -3.078125 C 26.632812 -1.929688 24.875 -1.050781 22.875 -0.4375 C 20.875 0.175781 18.863281 0.484375 16.84375 0.484375 C 13.9375 0.484375 11.320312 -0.132812 9 -1.375 C 6.675781 -2.613281 4.851562 -4.332031 3.53125 -6.53125 C 2.21875 -8.738281 1.5625 -11.226562 1.5625 -14 C 1.5625 -16.769531 2.21875 -19.253906 3.53125 -21.453125 C 4.851562 -23.660156 6.6875 -25.382812 9.03125 -26.625 C 11.382812 -27.863281 14.023438 -28.484375 16.953125 -28.484375 C 19.410156 -28.484375 21.640625 -28.066406 23.640625 -27.234375 C 25.640625 -26.410156 27.320312 -25.210938 28.6875 -23.640625 L 24.515625 -19.796875 C 22.515625 -21.898438 20.101562 -22.953125 17.28125 -22.953125 C 15.488281 -22.953125 13.898438 -22.578125 12.515625 -21.828125 C 11.128906 -21.085938 10.050781 -20.035156 9.28125 -18.671875 C 8.507812 -17.316406 8.125 -15.757812 8.125 -14 C 8.125 -12.269531 8.507812 -10.722656 9.28125 -9.359375 C 10.050781 -7.992188 11.125 -6.929688 12.5 -6.171875 C 13.875 -5.421875 15.441406 -5.046875 17.203125 -5.046875 C 19.066406 -5.046875 20.742188 -5.441406 22.234375 -6.234375 Z M 22.234375 -14.4375 "/></g></g><g style="fill:#000000;fill-opacity:1;"><g transform="translate(341.939668, 664.058529)"><path style="stroke:none" d="M 21.15625 0 L 15.765625 -7.796875 L 9.796875 -7.796875 L 9.796875 0 L 3.3125 0 L 3.3125 -28 L 15.4375 -28 C 17.914062 -28 20.066406 -27.582031 21.890625 -26.75 C 23.722656 -25.925781 25.128906 -24.753906 26.109375 -23.234375 C 27.097656 -21.710938 27.59375 -19.914062 27.59375 -17.84375 C 27.59375 -15.757812 27.09375 -13.960938 26.09375 -12.453125 C 25.09375 -10.953125 23.675781 -9.800781 21.84375 -9 L 28.125 0 Z M 21.046875 -17.84375 C 21.046875 -19.414062 20.535156 -20.617188 19.515625 -21.453125 C 18.503906 -22.296875 17.023438 -22.71875 15.078125 -22.71875 L 9.796875 -22.71875 L 9.796875 -12.953125 L 15.078125 -12.953125 C 17.023438 -12.953125 18.503906 -13.378906 19.515625 -14.234375 C 20.535156 -15.085938 21.046875 -16.289062 21.046875 -17.84375 Z M 21.046875 -17.84375 "/></g></g><g style="fill:#000000;fill-opacity:1;"><g transform="translate(377.336746, 664.058529)"><path style="stroke:none" d="M 16.875 0.484375 C 13.96875 0.484375 11.347656 -0.140625 9.015625 -1.390625 C 6.679688 -2.648438 4.851562 -4.378906 3.53125 -6.578125 C 2.21875 -8.773438 1.5625 -11.25 1.5625 -14 C 1.5625 -16.75 2.21875 -19.222656 3.53125 -21.421875 C 4.851562 -23.617188 6.679688 -25.34375 9.015625 -26.59375 C 11.347656 -27.851562 13.96875 -28.484375 16.875 -28.484375 C 19.78125 -28.484375 22.394531 -27.851562 24.71875 -26.59375 C 27.039062 -25.34375 28.867188 -23.617188 30.203125 -21.421875 C 31.535156 -19.222656 32.203125 -16.75 32.203125 -14 C 32.203125 -11.25 31.535156 -8.773438 30.203125 -6.578125 C 28.867188 -4.378906 27.039062 -2.648438 24.71875 -1.390625 C 22.394531 -0.140625 19.78125 0.484375 16.875 0.484375 Z M 16.875 -5.046875 C 18.53125 -5.046875 20.023438 -5.421875 21.359375 -6.171875 C 22.691406 -6.929688 23.738281 -7.992188 24.5 -9.359375 C 25.257812 -10.722656 25.640625 -12.269531 25.640625 -14 C 25.640625 -15.726562 25.257812 -17.273438 24.5 -18.640625 C 23.738281 -20.003906 22.691406 -21.0625 21.359375 -21.8125 C 20.023438 -22.570312 18.53125 -22.953125 16.875 -22.953125 C 15.226562 -22.953125 13.738281 -22.570312 12.40625 -21.8125 C 11.070312 -21.0625 10.023438 -20.003906 9.265625 -18.640625 C 8.503906 -17.273438 8.125 -15.726562 8.125 -14 C 8.125 -12.269531 8.503906 -10.722656 9.265625 -9.359375 C 10.023438 -7.992188 11.070312 -6.929688 12.40625 -6.171875 C 13.738281 -5.421875 15.226562 -5.046875 16.875 -5.046875 Z M 16.875 -5.046875 "/></g></g><g style="fill:#000000;fill-opacity:1;"><g transform="translate(416.173437, 664.058529)"><path style="stroke:none" d="M 45.640625 -28 L 36.484375 0 L 29.515625 0 L 23.359375 -18.953125 L 17 0 L 10.078125 0 L 0.875 -28 L 7.59375 -28 L 13.921875 -8.3125 L 20.515625 -28 L 26.515625 -28 L 32.921875 -8.15625 L 39.4375 -28 Z M 45.640625 -28 "/></g></g><g style="fill:#000000;fill-opacity:1;"><g transform="translate(468.168818, 664.058529)"><path style="stroke:none" d="M 9.125 -22.71875 L 0.15625 -22.71875 L 0.15625 -28 L 24.5625 -28 L 24.5625 -22.71875 L 15.59375 -22.71875 L 15.59375 0 L 9.125 0 Z M 9.125 -22.71875 "/></g></g><g style="fill:#000000;fill-opacity:1;"><g transform="translate(498.886361, 664.058529)"><path style="stroke:none" d="M 29 -28 L 29 0 L 22.515625 0 L 22.515625 -11.484375 L 9.796875 -11.484375 L 9.796875 0 L 3.3125 0 L 3.3125 -28 L 9.796875 -28 L 9.796875 -16.953125 L 22.515625 -16.953125 L 22.515625 -28 Z M 29 -28 "/></g></g><g style="fill:#000000;fill-opacity:1;"><g transform="translate(537.203147, 664.058529)"><path style="stroke:none" d=""/></g></g><g style="fill:#000000;fill-opacity:1;"><g transform="translate(554.521994, 664.058529)"><path style="stroke:none" d="M 15.4375 -28 C 17.914062 -28 20.066406 -27.582031 21.890625 -26.75 C 23.722656 -25.925781 25.128906 -24.753906 26.109375 -23.234375 C 27.097656 -21.710938 27.59375 -19.914062 27.59375 -17.84375 C 27.59375 -15.789062 27.097656 -13.992188 26.109375 -12.453125 C 25.128906 -10.921875 23.722656 -9.75 21.890625 -8.9375 C 20.066406 -8.125 17.914062 -7.71875 15.4375 -7.71875 L 9.796875 -7.71875 L 9.796875 0 L 3.3125 0 L 3.3125 -28 Z M 15.078125 -13 C 17.023438 -13 18.503906 -13.414062 19.515625 -14.25 C 20.535156 -15.09375 21.046875 -16.289062 21.046875 -17.84375 C 21.046875 -19.414062 20.535156 -20.617188 19.515625 -21.453125 C 18.503906 -22.296875 17.023438 -22.71875 15.078125 -22.71875 L 9.796875 -22.71875 L 9.796875 -13 Z M 15.078125 -13 "/></g></g><g style="fill:#000000;fill-opacity:1;"><g transform="translate(587.999164, 664.058529)"><path style="stroke:none" d="M 21.765625 -6 L 8.765625 -6 L 6.28125 0 L -0.359375 0 L 12.125 -28 L 18.515625 -28 L 31.046875 0 L 24.234375 0 Z M 19.71875 -10.921875 L 15.28125 -21.640625 L 10.84375 -10.921875 Z M 19.71875 -10.921875 "/></g></g><g style="fill:#000000;fill-opacity:1;"><g transform="translate(624.63614, 664.058529)"><path style="stroke:none" d="M 21.15625 0 L 15.765625 -7.796875 L 9.796875 -7.796875 L 9.796875 0 L 3.3125 0 L 3.3125 -28 L 15.4375 -28 C 17.914062 -28 20.066406 -27.582031 21.890625 -26.75 C 23.722656 -25.925781 25.128906 -24.753906 26.109375 -23.234375 C 27.097656 -21.710938 27.59375 -19.914062 27.59375 -17.84375 C 27.59375 -15.757812 27.09375 -13.960938 26.09375 -12.453125 C 25.09375 -10.953125 23.675781 -9.800781 21.84375 -9 L 28.125 0 Z M 21.046875 -17.84375 C 21.046875 -19.414062 20.535156 -20.617188 19.515625 -21.453125 C 18.503906 -22.296875 17.023438 -22.71875 15.078125 -22.71875 L 9.796875 -22.71875 L 9.796875 -12.953125 L 15.078125 -12.953125 C 17.023438 -12.953125 18.503906 -13.378906 19.515625 -14.234375 C 20.535156 -15.085938 21.046875 -16.289062 21.046875 -17.84375 Z M 21.046875 -17.84375 "/></g></g><g style="fill:#000000;fill-opacity:1;"><g transform="translate(659.633224, 664.058529)"><path style="stroke:none" d="M 9.125 -22.71875 L 0.15625 -22.71875 L 0.15625 -28 L 24.5625 -28 L 24.5625 -22.71875 L 15.59375 -22.71875 L 15.59375 0 L 9.125 0 Z M 9.125 -22.71875 "/></g></g><g style="fill:#000000;fill-opacity:1;"><g transform="translate(690.350767, 664.058529)"><path style="stroke:none" d="M 29 -28 L 29 0 L 23.6875 0 L 9.71875 -17 L 9.71875 0 L 3.3125 0 L 3.3125 -28 L 8.6875 -28 L 22.59375 -11 L 22.59375 -28 Z M 29 -28 "/></g></g><g style="fill:#000000;fill-opacity:1;"><g transform="translate(728.667553, 664.058529)"><path style="stroke:none" d="M 25 -5.203125 L 25 0 L 3.3125 0 L 3.3125 -28 L 24.484375 -28 L 24.484375 -22.796875 L 9.765625 -22.796875 L 9.765625 -16.71875 L 22.765625 -16.71875 L 22.765625 -11.6875 L 9.765625 -11.6875 L 9.765625 -5.203125 Z M 25 -5.203125 "/></g></g><g style="fill:#000000;fill-opacity:1;"><g transform="translate(761.504862, 664.058529)"><path style="stroke:none" d="M 21.15625 0 L 15.765625 -7.796875 L 9.796875 -7.796875 L 9.796875 0 L 3.3125 0 L 3.3125 -28 L 15.4375 -28 C 17.914062 -28 20.066406 -27.582031 21.890625 -26.75 C 23.722656 -25.925781 25.128906 -24.753906 26.109375 -23.234375 C 27.097656 -21.710938 27.59375 -19.914062 27.59375 -17.84375 C 27.59375 -15.757812 27.09375 -13.960938 26.09375 -12.453125 C 25.09375 -10.953125 23.675781 -9.800781 21.84375 -9 L 28.125 0 Z M 21.046875 -17.84375 C 21.046875 -19.414062 20.535156 -20.617188 19.515625 -21.453125 C 18.503906 -22.296875 17.023438 -22.71875 15.078125 -22.71875 L 9.796875 -22.71875 L 9.796875 -12.953125 L 15.078125 -12.953125 C 17.023438 -12.953125 18.503906 -13.378906 19.515625 -14.234375 C 20.535156 -15.085938 21.046875 -16.289062 21.046875 -17.84375 Z M 21.046875 -17.84375 "/></g></g><g style="fill:#000000;fill-opacity:1;"><g transform="translate(796.901894, 664.058529)"><path style="stroke:none" d="M 12.515625 0.484375 C 10.304688 0.484375 8.164062 0.1875 6.09375 -0.40625 C 4.03125 -1.007812 2.375 -1.796875 1.125 -2.765625 L 3.3125 -7.640625 C 4.519531 -6.753906 5.945312 -6.046875 7.59375 -5.515625 C 9.25 -4.984375 10.90625 -4.71875 12.5625 -4.71875 C 14.394531 -4.71875 15.75 -4.988281 16.625 -5.53125 C 17.507812 -6.082031 17.953125 -6.8125 17.953125 -7.71875 C 17.953125 -8.382812 17.691406 -8.9375 17.171875 -9.375 C 16.660156 -9.820312 15.992188 -10.175781 15.171875 -10.4375 C 14.359375 -10.707031 13.257812 -11 11.875 -11.3125 C 9.75 -11.820312 8.003906 -12.328125 6.640625 -12.828125 C 5.273438 -13.335938 4.109375 -14.148438 3.140625 -15.265625 C 2.171875 -16.390625 1.6875 -17.890625 1.6875 -19.765625 C 1.6875 -21.390625 2.125 -22.859375 3 -24.171875 C 3.875 -25.492188 5.195312 -26.539062 6.96875 -27.3125 C 8.75 -28.09375 10.921875 -28.484375 13.484375 -28.484375 C 15.265625 -28.484375 17.007812 -28.269531 18.71875 -27.84375 C 20.425781 -27.414062 21.921875 -26.800781 23.203125 -26 L 21.203125 -21.078125 C 18.609375 -22.546875 16.019531 -23.28125 13.4375 -23.28125 C 11.625 -23.28125 10.285156 -22.984375 9.421875 -22.390625 C 8.554688 -21.804688 8.125 -21.035156 8.125 -20.078125 C 8.125 -19.117188 8.625 -18.40625 9.625 -17.9375 C 10.625 -17.46875 12.148438 -17.007812 14.203125 -16.5625 C 16.335938 -16.050781 18.082031 -15.539062 19.4375 -15.03125 C 20.800781 -14.53125 21.96875 -13.734375 22.9375 -12.640625 C 23.914062 -11.546875 24.40625 -10.066406 24.40625 -8.203125 C 24.40625 -6.597656 23.957031 -5.132812 23.0625 -3.8125 C 22.164062 -2.5 20.820312 -1.453125 19.03125 -0.671875 C 17.25 0.0976562 15.078125 0.484375 12.515625 0.484375 Z M 12.515625 0.484375 "/></g></g></g></svg>