<svg xmlns="http://www.w3.org/2000/svg" xmlns:xlink="http://www.w3.org/1999/xlink" width="2000" zoomAndPan="magnify" viewBox="0 0 1500 1499.999933" height="2000" preserveAspectRatio="xMidYMid meet" version="1.2"><defs><clipPath id="ef9b6897a8"><path d="M 0 525 L 1500 525 L 1500 1124.171875 L 0 1124.171875 Z M 0 525 "/></clipPath><clipPath id="2d2f57ef0f"><path d="M 0 0 L 1500 0 L 1500 599.171875 L 0 599.171875 Z M 0 0 "/></clipPath><clipPath id="63a9b155da"><rect x="0" width="1500" y="0" height="600"/></clipPath><clipPath id="e6b56250bf"><rect x="0" width="1458" y="0" height="763"/></clipPath></defs><g id="57b304498a"><g clip-rule="nonzero" clip-path="url(#ef9b6897a8)"><g transform="matrix(1,0,0,1,0,525)"><g clip-path="url(#63a9b155da)"><g clip-rule="nonzero" clip-path="url(#2d2f57ef0f)"><path style=" stroke:none;fill-rule:nonzero;fill:#ffffff;fill-opacity:1;" d="M 0 0 L 1500.269531 0 L 1500.269531 599.171875 L 0 599.171875 Z M 0 0 "/></g></g></g></g><g transform="matrix(1,0,0,1,21,368)"><g clip-path="url(#e6b56250bf)"><g style="fill:#0080ff;fill-opacity:1;"><g transform="translate(1.18753, 604.499863)"><path style="stroke:none" d="M 51.875 -437.5 L 250.625 -437.5 C 298.125 -437.5 340.101562 -428.4375 376.5625 -410.3125 C 413.019531 -392.1875 441.351562 -366.664062 461.5625 -333.75 C 481.769531 -300.832031 491.875 -262.5 491.875 -218.75 C 491.875 -175 481.769531 -136.664062 461.5625 -103.75 C 441.351562 -70.832031 413.019531 -45.3125 376.5625 -27.1875 C 340.101562 -9.0625 298.125 0 250.625 0 L 51.875 0 Z M 245.625 -83.125 C 289.375 -83.125 324.269531 -95.3125 350.3125 -119.6875 C 376.351562 -144.0625 389.375 -177.082031 389.375 -218.75 C 389.375 -260.414062 376.351562 -293.4375 350.3125 -317.8125 C 324.269531 -342.1875 289.375 -354.375 245.625 -354.375 L 153.125 -354.375 L 153.125 -83.125 Z M 245.625 -83.125 "/></g></g><g style="fill:#00cc66;fill-opacity:1;"><g transform="translate(517.437453, 604.499863)"><path style="stroke:none" d="M 347.5 -225.625 L 440 -225.625 L 440 -48.125 C 416.25 -30.207031 388.75 -16.457031 357.5 -6.875 C 326.25 2.707031 294.789062 7.5 263.125 7.5 C 217.707031 7.5 176.875 -2.1875 140.625 -21.5625 C 104.375 -40.9375 75.9375 -67.8125 55.3125 -102.1875 C 34.6875 -136.5625 24.375 -175.414062 24.375 -218.75 C 24.375 -262.082031 34.6875 -300.9375 55.3125 -335.3125 C 75.9375 -369.6875 104.582031 -396.5625 141.25 -415.9375 C 177.914062 -435.3125 219.164062 -445 265 -445 C 303.332031 -445 338.125 -438.539062 369.375 -425.625 C 400.625 -412.707031 426.875 -393.957031 448.125 -369.375 L 383.125 -309.375 C 351.875 -342.289062 314.164062 -358.75 270 -358.75 C 242.082031 -358.75 217.289062 -352.914062 195.625 -341.25 C 173.957031 -329.582031 157.082031 -313.125 145 -291.875 C 132.914062 -270.625 126.875 -246.25 126.875 -218.75 C 126.875 -191.664062 132.914062 -167.5 145 -146.25 C 157.082031 -125 173.851562 -108.4375 195.3125 -96.5625 C 216.769531 -84.6875 241.25 -78.75 268.75 -78.75 C 297.914062 -78.75 324.164062 -85 347.5 -97.5 Z M 347.5 -225.625 "/></g></g><g style="fill:#8000ff;fill-opacity:1;"><g transform="translate(999.31238, 604.499863)"><path style="stroke:none" d="M 241.25 -437.5 C 280 -437.5 313.644531 -431.039062 342.1875 -418.125 C 370.726562 -405.207031 392.707031 -386.875 408.125 -363.125 C 423.539062 -339.375 431.25 -311.25 431.25 -278.75 C 431.25 -246.664062 423.539062 -218.644531 408.125 -194.6875 C 392.707031 -170.726562 370.726562 -152.394531 342.1875 -139.6875 C 313.644531 -126.976562 280 -120.625 241.25 -120.625 L 153.125 -120.625 L 153.125 0 L 51.875 0 L 51.875 -437.5 Z M 235.625 -203.125 C 266.039062 -203.125 289.164062 -209.6875 305 -222.8125 C 320.832031 -235.9375 328.75 -254.582031 328.75 -278.75 C 328.75 -303.332031 320.832031 -322.1875 305 -335.3125 C 289.164062 -348.4375 266.039062 -355 235.625 -355 L 153.125 -355 L 153.125 -203.125 Z M 235.625 -203.125 "/></g></g></g></g><g style="fill:#000000;fill-opacity:1;"><g transform="translate(98.800806, 1114.264228)"><path style="stroke:none" d="M 7.0625 -59.5 L 34.078125 -59.5 C 40.546875 -59.5 46.257812 -58.265625 51.21875 -55.796875 C 56.175781 -53.335938 60.023438 -49.867188 62.765625 -45.390625 C 65.515625 -40.910156 66.890625 -35.695312 66.890625 -29.75 C 66.890625 -23.800781 65.515625 -18.585938 62.765625 -14.109375 C 60.023438 -9.628906 56.175781 -6.15625 51.21875 -3.6875 C 46.257812 -1.226562 40.546875 0 34.078125 0 L 7.0625 0 Z M 33.40625 -11.3125 C 39.351562 -11.3125 44.097656 -12.96875 47.640625 -16.28125 C 51.179688 -19.59375 52.953125 -24.082031 52.953125 -29.75 C 52.953125 -35.414062 51.179688 -39.90625 47.640625 -43.21875 C 44.097656 -46.53125 39.351562 -48.1875 33.40625 -48.1875 L 20.828125 -48.1875 L 20.828125 -11.3125 Z M 33.40625 -11.3125 "/></g></g><g style="fill:#000000;fill-opacity:1;"><g transform="translate(169.007637, 1114.264228)"><path style="stroke:none" d="M 7.0625 -59.5 L 20.828125 -59.5 L 20.828125 0 L 7.0625 0 Z M 7.0625 -59.5 "/></g></g><g style="fill:#000000;fill-opacity:1;"><g transform="translate(196.88638, 1114.264228)"><path style="stroke:none" d="M 47.265625 -30.6875 L 59.84375 -30.6875 L 59.84375 -6.546875 C 56.613281 -4.109375 52.875 -2.238281 48.625 -0.9375 C 44.375 0.363281 40.09375 1.015625 35.78125 1.015625 C 29.601562 1.015625 24.050781 -0.300781 19.125 -2.9375 C 14.195312 -5.570312 10.328125 -9.222656 7.515625 -13.890625 C 4.710938 -18.566406 3.3125 -23.851562 3.3125 -29.75 C 3.3125 -35.644531 4.710938 -40.925781 7.515625 -45.59375 C 10.328125 -50.269531 14.222656 -53.925781 19.203125 -56.5625 C 24.191406 -59.195312 29.804688 -60.515625 36.046875 -60.515625 C 41.253906 -60.515625 45.984375 -59.632812 50.234375 -57.875 C 54.484375 -56.125 58.050781 -53.578125 60.9375 -50.234375 L 52.109375 -42.078125 C 47.859375 -46.554688 42.726562 -48.796875 36.71875 -48.796875 C 32.925781 -48.796875 29.554688 -48 26.609375 -46.40625 C 23.660156 -44.820312 21.363281 -42.582031 19.71875 -39.6875 C 18.070312 -36.800781 17.25 -33.488281 17.25 -29.75 C 17.25 -26.0625 18.070312 -22.773438 19.71875 -19.890625 C 21.363281 -17.003906 23.644531 -14.75 26.5625 -13.125 C 29.476562 -11.507812 32.804688 -10.703125 36.546875 -10.703125 C 40.515625 -10.703125 44.085938 -11.554688 47.265625 -13.265625 Z M 47.265625 -30.6875 "/></g></g><g style="fill:#000000;fill-opacity:1;"><g transform="translate(262.418414, 1114.264228)"><path style="stroke:none" d="M 7.0625 -59.5 L 20.828125 -59.5 L 20.828125 0 L 7.0625 0 Z M 7.0625 -59.5 "/></g></g><g style="fill:#000000;fill-opacity:1;"><g transform="translate(290.297158, 1114.264228)"><path style="stroke:none" d="M 19.375 -48.28125 L 0.34375 -48.28125 L 0.34375 -59.5 L 52.1875 -59.5 L 52.1875 -48.28125 L 33.15625 -48.28125 L 33.15625 0 L 19.375 0 Z M 19.375 -48.28125 "/></g></g><g style="fill:#000000;fill-opacity:1;"><g transform="translate(339.849865, 1114.264228)"><path style="stroke:none" d="M 46.234375 -12.75 L 18.609375 -12.75 L 13.34375 0 L -0.765625 0 L 25.75 -59.5 L 39.359375 -59.5 L 65.953125 0 L 51.515625 0 Z M 41.90625 -23.203125 L 32.46875 -45.984375 L 23.03125 -23.203125 Z M 41.90625 -23.203125 "/></g></g><g style="fill:#000000;fill-opacity:1;"><g transform="translate(404.956923, 1114.264228)"><path style="stroke:none" d="M 7.0625 -59.5 L 20.828125 -59.5 L 20.828125 -11.21875 L 50.65625 -11.21875 L 50.65625 0 L 7.0625 0 Z M 7.0625 -59.5 "/></g></g><g style="fill:#000000;fill-opacity:1;"><g transform="translate(456.294611, 1114.264228)"><path style="stroke:none" d=""/></g></g><g style="fill:#000000;fill-opacity:1;"><g transform="translate(480.34851, 1114.264228)"><path style="stroke:none" d="M 47.265625 -30.6875 L 59.84375 -30.6875 L 59.84375 -6.546875 C 56.613281 -4.109375 52.875 -2.238281 48.625 -0.9375 C 44.375 0.363281 40.09375 1.015625 35.78125 1.015625 C 29.601562 1.015625 24.050781 -0.300781 19.125 -2.9375 C 14.195312 -5.570312 10.328125 -9.222656 7.515625 -13.890625 C 4.710938 -18.566406 3.3125 -23.851562 3.3125 -29.75 C 3.3125 -35.644531 4.710938 -40.925781 7.515625 -45.59375 C 10.328125 -50.269531 14.222656 -53.925781 19.203125 -56.5625 C 24.191406 -59.195312 29.804688 -60.515625 36.046875 -60.515625 C 41.253906 -60.515625 45.984375 -59.632812 50.234375 -57.875 C 54.484375 -56.125 58.050781 -53.578125 60.9375 -50.234375 L 52.109375 -42.078125 C 47.859375 -46.554688 42.726562 -48.796875 36.71875 -48.796875 C 32.925781 -48.796875 29.554688 -48 26.609375 -46.40625 C 23.660156 -44.820312 21.363281 -42.582031 19.71875 -39.6875 C 18.070312 -36.800781 17.25 -33.488281 17.25 -29.75 C 17.25 -26.0625 18.070312 -22.773438 19.71875 -19.890625 C 21.363281 -17.003906 23.644531 -14.75 26.5625 -13.125 C 29.476562 -11.507812 32.804688 -10.703125 36.546875 -10.703125 C 40.515625 -10.703125 44.085938 -11.554688 47.265625 -13.265625 Z M 47.265625 -30.6875 "/></g></g><g style="fill:#000000;fill-opacity:1;"><g transform="translate(545.880556, 1114.264228)"><path style="stroke:none" d="M 44.96875 0 L 33.484375 -16.578125 L 20.828125 -16.578125 L 20.828125 0 L 7.0625 0 L 7.0625 -59.5 L 32.8125 -59.5 C 38.082031 -59.5 42.65625 -58.617188 46.53125 -56.859375 C 50.414062 -55.109375 53.40625 -52.617188 55.5 -49.390625 C 57.601562 -46.160156 58.65625 -42.332031 58.65625 -37.90625 C 58.65625 -33.488281 57.59375 -29.675781 55.46875 -26.46875 C 53.34375 -23.269531 50.320312 -20.820312 46.40625 -19.125 L 59.75 0 Z M 44.703125 -37.90625 C 44.703125 -41.25 43.625 -43.8125 41.46875 -45.59375 C 39.320312 -47.382812 36.179688 -48.28125 32.046875 -48.28125 L 20.828125 -48.28125 L 20.828125 -27.546875 L 32.046875 -27.546875 C 36.179688 -27.546875 39.320312 -28.453125 41.46875 -30.265625 C 43.625 -32.078125 44.703125 -34.625 44.703125 -37.90625 Z M 44.703125 -37.90625 "/></g></g><g style="fill:#000000;fill-opacity:1;"><g transform="translate(608.352703, 1114.264228)"><path style="stroke:none" d="M 35.875 1.015625 C 29.695312 1.015625 24.128906 -0.3125 19.171875 -2.96875 C 14.210938 -5.632812 10.328125 -9.304688 7.515625 -13.984375 C 4.710938 -18.660156 3.3125 -23.914062 3.3125 -29.75 C 3.3125 -35.582031 4.710938 -40.835938 7.515625 -45.515625 C 10.328125 -50.191406 14.210938 -53.859375 19.171875 -56.515625 C 24.128906 -59.179688 29.695312 -60.515625 35.875 -60.515625 C 42.050781 -60.515625 47.601562 -59.179688 52.53125 -56.515625 C 57.457031 -53.859375 61.335938 -50.191406 64.171875 -45.515625 C 67.003906 -40.835938 68.421875 -35.582031 68.421875 -29.75 C 68.421875 -23.914062 67.003906 -18.660156 64.171875 -13.984375 C 61.335938 -9.304688 57.457031 -5.632812 52.53125 -2.96875 C 47.601562 -0.3125 42.050781 1.015625 35.875 1.015625 Z M 35.875 -10.703125 C 39.382812 -10.703125 42.554688 -11.507812 45.390625 -13.125 C 48.222656 -14.75 50.445312 -17.003906 52.0625 -19.890625 C 53.675781 -22.773438 54.484375 -26.0625 54.484375 -29.75 C 54.484375 -33.4375 53.675781 -36.722656 52.0625 -39.609375 C 50.445312 -42.492188 48.222656 -44.742188 45.390625 -46.359375 C 42.554688 -47.984375 39.382812 -48.796875 35.875 -48.796875 C 32.351562 -48.796875 29.175781 -47.984375 26.34375 -46.359375 C 23.507812 -44.742188 21.285156 -42.492188 19.671875 -39.609375 C 18.054688 -36.722656 17.25 -33.4375 17.25 -29.75 C 17.25 -26.0625 18.054688 -22.773438 19.671875 -19.890625 C 21.285156 -17.003906 23.507812 -14.75 26.34375 -13.125 C 29.175781 -11.507812 32.351562 -10.703125 35.875 -10.703125 Z M 35.875 -10.703125 "/></g></g><g style="fill:#000000;fill-opacity:1;"><g transform="translate(678.134557, 1114.264228)"><path style="stroke:none" d="M 96.984375 -59.5 L 77.515625 0 L 62.734375 0 L 49.640625 -40.296875 L 36.125 0 L 21.421875 0 L 1.875 -59.5 L 16.15625 -59.5 L 29.578125 -17.6875 L 43.609375 -59.5 L 56.359375 -59.5 L 69.953125 -17.34375 L 83.8125 -59.5 Z M 96.984375 -59.5 "/></g></g><g style="fill:#000000;fill-opacity:1;"><g transform="translate(775.880094, 1114.264228)"><path style="stroke:none" d="M 19.375 -48.28125 L 0.34375 -48.28125 L 0.34375 -59.5 L 52.1875 -59.5 L 52.1875 -48.28125 L 33.15625 -48.28125 L 33.15625 0 L 19.375 0 Z M 19.375 -48.28125 "/></g></g><g style="fill:#000000;fill-opacity:1;"><g transform="translate(828.407738, 1114.264228)"><path style="stroke:none" d="M 61.625 -59.5 L 61.625 0 L 47.859375 0 L 47.859375 -24.390625 L 20.828125 -24.390625 L 20.828125 0 L 7.0625 0 L 7.0625 -59.5 L 20.828125 -59.5 L 20.828125 -36.046875 L 47.859375 -36.046875 L 47.859375 -59.5 Z M 61.625 -59.5 "/></g></g><g style="fill:#000000;fill-opacity:1;"><g transform="translate(897.084642, 1114.264228)"><path style="stroke:none" d=""/></g></g><g style="fill:#000000;fill-opacity:1;"><g transform="translate(921.138565, 1114.264228)"><path style="stroke:none" d="M 32.8125 -59.5 C 38.082031 -59.5 42.65625 -58.617188 46.53125 -56.859375 C 50.414062 -55.109375 53.40625 -52.617188 55.5 -49.390625 C 57.601562 -46.160156 58.65625 -42.332031 58.65625 -37.90625 C 58.65625 -33.539062 57.601562 -29.726562 55.5 -26.46875 C 53.40625 -23.21875 50.414062 -20.726562 46.53125 -19 C 42.65625 -17.269531 38.082031 -16.40625 32.8125 -16.40625 L 20.828125 -16.40625 L 20.828125 0 L 7.0625 0 L 7.0625 -59.5 Z M 32.046875 -27.625 C 36.179688 -27.625 39.320312 -28.515625 41.46875 -30.296875 C 43.625 -32.085938 44.703125 -34.625 44.703125 -37.90625 C 44.703125 -41.25 43.625 -43.8125 41.46875 -45.59375 C 39.320312 -47.382812 36.179688 -48.28125 32.046875 -48.28125 L 20.828125 -48.28125 L 20.828125 -27.625 Z M 32.046875 -27.625 "/></g></g><g style="fill:#000000;fill-opacity:1;"><g transform="translate(979.530802, 1114.264228)"><path style="stroke:none" d="M 46.234375 -12.75 L 18.609375 -12.75 L 13.34375 0 L -0.765625 0 L 25.75 -59.5 L 39.359375 -59.5 L 65.953125 0 L 51.515625 0 Z M 41.90625 -23.203125 L 32.46875 -45.984375 L 23.03125 -23.203125 Z M 41.90625 -23.203125 "/></g></g><g style="fill:#000000;fill-opacity:1;"><g transform="translate(1044.637882, 1114.264228)"><path style="stroke:none" d="M 44.96875 0 L 33.484375 -16.578125 L 20.828125 -16.578125 L 20.828125 0 L 7.0625 0 L 7.0625 -59.5 L 32.8125 -59.5 C 38.082031 -59.5 42.65625 -58.617188 46.53125 -56.859375 C 50.414062 -55.109375 53.40625 -52.617188 55.5 -49.390625 C 57.601562 -46.160156 58.65625 -42.332031 58.65625 -37.90625 C 58.65625 -33.488281 57.59375 -29.675781 55.46875 -26.46875 C 53.34375 -23.269531 50.320312 -20.820312 46.40625 -19.125 L 59.75 0 Z M 44.703125 -37.90625 C 44.703125 -41.25 43.625 -43.8125 41.46875 -45.59375 C 39.320312 -47.382812 36.179688 -48.28125 32.046875 -48.28125 L 20.828125 -48.28125 L 20.828125 -27.546875 L 32.046875 -27.546875 C 36.179688 -27.546875 39.320312 -28.453125 41.46875 -30.265625 C 43.625 -32.078125 44.703125 -34.625 44.703125 -37.90625 Z M 44.703125 -37.90625 "/></g></g><g style="fill:#000000;fill-opacity:1;"><g transform="translate(1106.2601, 1114.264228)"><path style="stroke:none" d="M 19.375 -48.28125 L 0.34375 -48.28125 L 0.34375 -59.5 L 52.1875 -59.5 L 52.1875 -48.28125 L 33.15625 -48.28125 L 33.15625 0 L 19.375 0 Z M 19.375 -48.28125 "/></g></g><g style="fill:#000000;fill-opacity:1;"><g transform="translate(1158.787653, 1114.264228)"><path style="stroke:none" d="M 61.625 -59.5 L 61.625 0 L 50.3125 0 L 20.65625 -36.125 L 20.65625 0 L 7.0625 0 L 7.0625 -59.5 L 18.4375 -59.5 L 48.03125 -23.375 L 48.03125 -59.5 Z M 61.625 -59.5 "/></g></g><g style="fill:#000000;fill-opacity:1;"><g transform="translate(1227.464557, 1114.264228)"><path style="stroke:none" d="M 53.125 -11.046875 L 53.125 0 L 7.0625 0 L 7.0625 -59.5 L 52.015625 -59.5 L 52.015625 -48.453125 L 20.734375 -48.453125 L 20.734375 -35.53125 L 48.359375 -35.53125 L 48.359375 -24.8125 L 20.734375 -24.8125 L 20.734375 -11.046875 Z M 53.125 -11.046875 "/></g></g><g style="fill:#000000;fill-opacity:1;"><g transform="translate(1284.496962, 1114.264228)"><path style="stroke:none" d="M 44.96875 0 L 33.484375 -16.578125 L 20.828125 -16.578125 L 20.828125 0 L 7.0625 0 L 7.0625 -59.5 L 32.8125 -59.5 C 38.082031 -59.5 42.65625 -58.617188 46.53125 -56.859375 C 50.414062 -55.109375 53.40625 -52.617188 55.5 -49.390625 C 57.601562 -46.160156 58.65625 -42.332031 58.65625 -37.90625 C 58.65625 -33.488281 57.59375 -29.675781 55.46875 -26.46875 C 53.34375 -23.269531 50.320312 -20.820312 46.40625 -19.125 L 59.75 0 Z M 44.703125 -37.90625 C 44.703125 -41.25 43.625 -43.8125 41.46875 -45.59375 C 39.320312 -47.382812 36.179688 -48.28125 32.046875 -48.28125 L 20.828125 -48.28125 L 20.828125 -27.546875 L 32.046875 -27.546875 C 36.179688 -27.546875 39.320312 -28.453125 41.46875 -30.265625 C 43.625 -32.078125 44.703125 -34.625 44.703125 -37.90625 Z M 44.703125 -37.90625 "/></g></g><g style="fill:#000000;fill-opacity:1;"><g transform="translate(1346.969155, 1114.264228)"><path style="stroke:none" d="M 26.609375 1.015625 C 21.898438 1.015625 17.347656 0.378906 12.953125 -0.890625 C 8.566406 -2.171875 5.039062 -3.828125 2.375 -5.859375 L 7.0625 -16.234375 C 9.601562 -14.367188 12.628906 -12.867188 16.140625 -11.734375 C 19.660156 -10.597656 23.175781 -10.03125 26.6875 -10.03125 C 30.601562 -10.03125 33.492188 -10.609375 35.359375 -11.765625 C 37.234375 -12.929688 38.171875 -14.476562 38.171875 -16.40625 C 38.171875 -17.820312 37.613281 -18.992188 36.5 -19.921875 C 35.394531 -20.859375 33.976562 -21.609375 32.25 -22.171875 C 30.53125 -22.742188 28.195312 -23.375 25.25 -24.0625 C 20.707031 -25.132812 16.992188 -26.207031 14.109375 -27.28125 C 11.222656 -28.363281 8.742188 -30.09375 6.671875 -32.46875 C 4.597656 -34.851562 3.5625 -38.023438 3.5625 -41.984375 C 3.5625 -45.441406 4.5 -48.570312 6.375 -51.375 C 8.25 -54.1875 11.066406 -56.410156 14.828125 -58.046875 C 18.597656 -59.691406 23.203125 -60.515625 28.640625 -60.515625 C 32.441406 -60.515625 36.15625 -60.0625 39.78125 -59.15625 C 43.40625 -58.25 46.578125 -56.945312 49.296875 -55.25 L 45.046875 -44.796875 C 39.554688 -47.910156 34.0625 -49.46875 28.5625 -49.46875 C 24.707031 -49.46875 21.859375 -48.84375 20.015625 -47.59375 C 18.171875 -46.351562 17.25 -44.710938 17.25 -42.671875 C 17.25 -40.628906 18.3125 -39.113281 20.4375 -38.125 C 22.5625 -37.132812 25.804688 -36.15625 30.171875 -35.1875 C 34.703125 -34.113281 38.410156 -33.035156 41.296875 -31.953125 C 44.191406 -30.878906 46.671875 -29.179688 48.734375 -26.859375 C 50.804688 -24.535156 51.84375 -21.390625 51.84375 -17.421875 C 51.84375 -14.023438 50.894531 -10.921875 49 -8.109375 C 47.101562 -5.304688 44.253906 -3.082031 40.453125 -1.4375 C 36.660156 0.195312 32.046875 1.015625 26.609375 1.015625 Z M 26.609375 1.015625 "/></g></g><g style="fill:#000000;fill-opacity:1;"><g transform="translate(1401.199113, 1114.264228)"><path style="stroke:none" d=""/></g></g></g></svg>